<!--?xml version="1.0" standalone="no"?-->
              <svg id="sw-js-blob-svg" viewBox="0 0 100 100" xmlns="http://www.w3.org/2000/svg" version="1.1">
                    <defs> 
                        <linearGradient id="sw-gradient" x1="0" x2="1" y1="1" y2="0">
                            <stop id="stop1" stop-color="rgba(248, 117, 55, 1)" offset="0%" data-darkreader-inline-stopcolor="" style="--darkreader-inline-stopcolor: #a93a06;"></stop>
                            <stop id="stop2" stop-color="rgba(251, 168, 31, 1)" offset="100%" data-darkreader-inline-stopcolor="" style="--darkreader-inline-stopcolor: #b97403;"></stop>
                        </linearGradient>
                    </defs>
                <path fill="url(#sw-gradient)" d="M19.1,-23C24.8,-18.1,29.3,-12,31.3,-4.9C33.4,2.3,32.9,10.5,29.1,16.7C25.4,22.8,18.4,26.9,10.7,30.1C3,33.2,-5.3,35.4,-14.1,34.1C-22.8,32.9,-31.9,28.3,-36.7,20.8C-41.6,13.3,-42.2,2.8,-38.9,-5.3C-35.6,-13.4,-28.4,-19.3,-21.3,-24C-14.1,-28.7,-7.1,-32.3,-0.2,-32.1C6.7,-31.9,13.5,-28,19.1,-23Z" width="100%" height="100%" transform="translate(50 50)" stroke-width="0" style="transition: all 0.3s ease 0s;"></path>
              </svg>